<svg width="600" height="371" viewBox="0 0 600 371" xmlns="http://www.w3.org/2000/svg" xmlns:xlink="http://www.w3.org/1999/xlink" stroke-linecap="square" stroke-miterlimit="10" fill="none" overflow="hidden"><path d="M0 0 600 0 600 371 0 371 0 0Z" fill="#FFFFFF"/><path d="M300 18.55C380.141 18.55 448.976 75.4953 463.993 154.217L300 185.5Z" fill="#4285F4"/><path d="M138.295 227.019C125.464 177.044 136.46 123.944 168.084 83.1752 199.707 42.4064 248.404 18.55 300 18.55L300 185.5Z" fill="#FBBC04"/><path d="M463.993 154.217C480.888 242.782 424.41 328.761 336.419 348.429 248.428 368.098 160.717 314.348 138.295 227.019L300 185.5Z" fill="#EA4335"/><path d="M19.4719 83.7914 19.4719 75.1977 22.7219 75.1977C23.2844 75.1977 23.7167 75.2237 24.0187 75.2758 24.4458 75.3487 24.8 75.4841 25.0812 75.682 25.3729 75.88 25.6021 76.156 25.7687 76.5102 25.9458 76.8643 26.0344 77.255 26.0344 77.682 26.0344 78.4112 25.8 79.031 25.3312 79.5414 24.8729 80.0414 24.0344 80.2914 22.8156 80.2914L20.6125 80.2914 20.6125 83.7914 19.4719 83.7914ZM20.6125 79.2914 22.8312 79.2914C23.5708 79.2914 24.0917 79.156 24.3937 78.8852 24.7062 78.6039 24.8625 78.2133 24.8625 77.7133 24.8625 77.3591 24.7687 77.057 24.5812 76.807 24.4042 76.5466 24.1698 76.3747 23.8781 76.2914 23.6802 76.2393 23.326 76.2133 22.8156 76.2133L20.6125 76.2133 20.6125 79.2914ZM27.3156 83.7914 27.3156 75.1977 28.3781 75.1977 28.3781 83.7914 27.3156 83.7914ZM34.425 83.7914 34.425 82.8695C33.9354 83.5779 33.274 83.932 32.4406 83.932 32.076 83.932 31.7323 83.8643 31.4094 83.7289 31.0969 83.5831 30.8625 83.406 30.7062 83.1977 30.55 82.9789 30.4406 82.7133 30.3781 82.4008 30.3365 82.2029 30.3156 81.8747 30.3156 81.4164L30.3156 77.5727 31.3781 77.5727 31.3781 81.0258C31.3781 81.5675 31.399 81.9372 31.4406 82.1352 31.5031 82.406 31.6385 82.6247 31.8469 82.7914 32.0656 82.9477 32.3365 83.0258 32.6594 83.0258 32.9719 83.0258 33.2635 82.9477 33.5344 82.7914 33.8156 82.6247 34.0135 82.4008 34.1281 82.1195 34.2531 81.8383 34.3156 81.432 34.3156 80.9008L34.3156 77.5727 35.3625 77.5727 35.3625 83.7914 34.425 83.7914ZM37.3312 83.7914 37.3312 77.5727 38.2844 77.5727 38.2844 78.5102C38.524 78.0727 38.7427 77.7862 38.9406 77.6508 39.149 77.505 39.3781 77.432 39.6281 77.432 39.9823 77.432 40.3417 77.5414 40.7062 77.7602L40.3469 78.7445C40.0865 78.5883 39.8312 78.5102 39.5812 78.5102 39.3417 78.5102 39.1281 78.5831 38.9406 78.7289 38.7635 78.8643 38.6385 79.057 38.5656 79.307 38.4406 79.682 38.3781 80.0883 38.3781 80.5258L38.3781 83.7914 37.3312 83.7914ZM45.4094 83.0258C45.0135 83.3591 44.6333 83.5935 44.2687 83.7289 43.9146 83.8643 43.5292 83.932 43.1125 83.932 42.425 83.932 41.899 83.7654 41.5344 83.432 41.1698 83.0987 40.9875 82.6716 40.9875 82.1508 40.9875 81.8487 41.0552 81.5727 41.1906 81.3227 41.326 81.0622 41.5083 80.8591 41.7375 80.7133 41.9667 80.557 42.2219 80.4425 42.5031 80.3695 42.701 80.307 43.0135 80.2497 43.4406 80.1977 44.2844 80.1039 44.9094 79.9841 45.3156 79.8383 45.3156 79.6925 45.3156 79.6039 45.3156 79.5727 45.3156 79.1352 45.2167 78.8279 45.0187 78.6508 44.7479 78.4216 44.3469 78.307 43.8156 78.307 43.326 78.307 42.9615 78.3956 42.7219 78.5727 42.4823 78.7393 42.3052 79.0414 42.1906 79.4789L41.1594 79.3383C41.2531 78.9008 41.4094 78.5466 41.6281 78.2758 41.8469 78.005 42.1594 77.7966 42.5656 77.6508 42.9719 77.505 43.4406 77.432 43.9719 77.432 44.5031 77.432 44.9354 77.4945 45.2687 77.6195 45.6021 77.7445 45.8469 77.9008 46.0031 78.0883 46.1594 78.2758 46.2687 78.5154 46.3312 78.807 46.3625 78.9841 46.3781 79.307 46.3781 79.7758L46.3781 81.182C46.3781 82.1612 46.399 82.781 46.4406 83.0414 46.4927 83.3018 46.5865 83.5518 46.7219 83.7914L45.6125 83.7914C45.5083 83.5727 45.4406 83.3175 45.4094 83.0258ZM45.3156 80.6664C44.9302 80.8227 44.3573 80.9581 43.5969 81.0727 43.1594 81.1352 42.8521 81.2081 42.675 81.2914 42.4979 81.3643 42.3573 81.4737 42.2531 81.6195 42.1594 81.7654 42.1125 81.932 42.1125 82.1195 42.1125 82.4008 42.2167 82.6352 42.425 82.8227 42.6437 83.0102 42.9562 83.1039 43.3625 83.1039 43.7687 83.1039 44.1281 83.0154 44.4406 82.8383 44.7635 82.6612 44.9979 82.4164 45.1437 82.1039 45.2583 81.8643 45.3156 81.5154 45.3156 81.057L45.3156 80.6664ZM48.3156 83.7914 48.3156 75.1977 49.3781 75.1977 49.3781 83.7914 48.3156 83.7914ZM54.4719 83.7914 54.4719 75.1977 55.6281 75.1977 60.1437 81.9477 60.1437 75.1977 61.2375 75.1977 61.2375 83.7914 60.0656 83.7914 55.55 77.0414 55.55 83.7914 54.4719 83.7914ZM63.4719 83.7914 63.4719 75.1977 64.6281 75.1977 69.1438 81.9477 69.1438 75.1977 70.2375 75.1977 70.2375 83.7914 69.0656 83.7914 64.55 77.0414 64.55 83.7914 63.4719 83.7914ZM72.5031 83.7914 72.5031 75.1977 78.7063 75.1977 78.7063 76.2133 73.6438 76.2133 73.6438 78.8383 78.3938 78.8383 78.3938 79.8539 73.6438 79.8539 73.6438 82.7758 78.9094 82.7758 78.9094 83.7914 72.5031 83.7914ZM79.925 81.932 80.9563 81.7758C81.0188 82.1925 81.1802 82.5102 81.4406 82.7289 81.7115 82.9477 82.0917 83.057 82.5813 83.057 83.0604 83.057 83.4146 82.9633 83.6438 82.7758 83.8833 82.5779 84.0031 82.3435 84.0031 82.0727 84.0031 81.8331 83.899 81.6456 83.6906 81.5102 83.5448 81.4164 83.1854 81.2966 82.6125 81.1508 81.8417 80.9529 81.3052 80.7862 81.0031 80.6508 80.7115 80.505 80.4875 80.307 80.3313 80.057 80.175 79.807 80.0969 79.5258 80.0969 79.2133 80.0969 78.9425 80.1594 78.6872 80.2844 78.4477 80.4094 78.2081 80.5813 78.0102 80.8 77.8539 80.9667 77.7393 81.1906 77.6404 81.4719 77.557 81.7531 77.4737 82.0604 77.432 82.3938 77.432 82.8729 77.432 83.2948 77.505 83.6594 77.6508 84.0344 77.7862 84.3104 77.9737 84.4875 78.2133 84.6646 78.4529 84.7844 78.7706 84.8469 79.1664L83.8156 79.307C83.774 78.9945 83.6385 78.7497 83.4094 78.5727 83.1906 78.3852 82.8729 78.2914 82.4563 78.2914 81.9771 78.2914 81.6333 78.3747 81.425 78.5414 81.2167 78.6977 81.1125 78.8852 81.1125 79.1039 81.1125 79.2393 81.1542 79.3591 81.2375 79.4633 81.3313 79.5779 81.4667 79.6716 81.6438 79.7445 81.7479 79.7862 82.0604 79.8747 82.5813 80.0102 83.3313 80.2185 83.8521 80.3852 84.1438 80.5102 84.4354 80.6352 84.6646 80.8175 84.8313 81.057 84.9979 81.2966 85.0813 81.5987 85.0813 81.9633 85.0813 82.3175 84.9771 82.6508 84.7688 82.9633 84.5708 83.2654 84.2792 83.505 83.8938 83.682 83.5083 83.8487 83.0708 83.932 82.5813 83.932 81.7688 83.932 81.149 83.7654 80.7219 83.432 80.3052 83.0883 80.0396 82.5883 79.925 81.932Z" fill="#1A1A1A"/><path d="M24.5969 99.7758 24.5969 100.791 18.9094 100.791C18.9094 100.541 18.951 100.297 19.0344 100.057 19.1802 99.6716 19.4094 99.2914 19.7219 98.9164 20.0448 98.5414 20.5083 98.1091 21.1125 97.6195 22.05 96.8487 22.6802 96.2393 23.0031 95.7914 23.3365 95.3435 23.5031 94.9216 23.5031 94.5258 23.5031 94.1091 23.3521 93.7602 23.05 93.4789 22.7479 93.1872 22.3573 93.0414 21.8781 93.0414 21.3677 93.0414 20.9615 93.1925 20.6594 93.4945 20.3573 93.7966 20.201 94.2185 20.1906 94.7602L19.1125 94.6508C19.1854 93.8383 19.4615 93.2237 19.9406 92.807 20.4302 92.38 21.0865 92.1664 21.9094 92.1664 22.7323 92.1664 23.3833 92.3956 23.8625 92.8539 24.3417 93.3122 24.5812 93.88 24.5812 94.557 24.5812 94.9008 24.5083 95.2393 24.3625 95.5727 24.2271 95.8956 23.9927 96.2445 23.6594 96.6195 23.3365 96.9841 22.8 97.4841 22.05 98.1195 21.4146 98.6508 21.0031 99.0154 20.8156 99.2133 20.6385 99.4008 20.4927 99.5883 20.3781 99.7758L24.5969 99.7758ZM26.2062 98.807 27.2219 98.7133C27.3052 99.1925 27.4667 99.5414 27.7062 99.7602 27.9562 99.9685 28.2687 100.073 28.6437 100.073 28.9667 100.073 29.2479 99.9997 29.4875 99.8539 29.7375 99.6977 29.9406 99.4997 30.0969 99.2602 30.2531 99.0102 30.3833 98.6768 30.4875 98.2602 30.5917 97.8331 30.6437 97.4008 30.6437 96.9633 30.6437 96.9112 30.6437 96.8383 30.6437 96.7445 30.4354 97.0779 30.149 97.3539 29.7844 97.5727 29.4198 97.781 29.024 97.8852 28.5969 97.8852 27.8781 97.8852 27.274 97.63 26.7844 97.1195 26.2948 96.5987 26.05 95.9164 26.05 95.0727 26.05 94.1977 26.3052 93.4945 26.8156 92.9633 27.3365 92.432 27.9823 92.1664 28.7531 92.1664 29.3052 92.1664 29.8104 92.3175 30.2687 92.6195 30.7375 92.9216 31.0917 93.3539 31.3312 93.9164 31.5708 94.4685 31.6906 95.2706 31.6906 96.3227 31.6906 97.4164 31.5708 98.2914 31.3312 98.9477 31.1021 99.5935 30.7479 100.088 30.2687 100.432 29.8 100.765 29.2531 100.932 28.6281 100.932 27.951 100.932 27.399 100.75 26.9719 100.385 26.5448 100.01 26.2896 99.4841 26.2062 98.807ZM30.5187 95.0102C30.5187 94.406 30.3573 93.9268 30.0344 93.5727 29.7219 93.2185 29.3365 93.0414 28.8781 93.0414 28.4094 93.0414 27.9979 93.2341 27.6437 93.6195 27.3 93.9945 27.1281 94.4893 27.1281 95.1039 27.1281 95.6456 27.2948 96.0883 27.6281 96.432 27.9615 96.7758 28.3677 96.9477 28.8469 96.9477 29.3365 96.9477 29.7375 96.7758 30.05 96.432 30.3625 96.0883 30.5187 95.6143 30.5187 95.0102ZM33.6125 100.791 33.6125 99.5883 34.8156 99.5883 34.8156 100.791C34.8156 101.229 34.7375 101.583 34.5812 101.854 34.425 102.135 34.1802 102.349 33.8469 102.495L33.55 102.041C33.7687 101.948 33.9302 101.802 34.0344 101.604 34.1385 101.416 34.201 101.146 34.2219 100.791L33.6125 100.791ZM36.05 96.557C36.05 95.5362 36.1542 94.7185 36.3625 94.1039 36.5708 93.4789 36.8781 92.9997 37.2844 92.6664 37.701 92.3331 38.2219 92.1664 38.8469 92.1664 39.3052 92.1664 39.7062 92.2602 40.05 92.4477 40.4042 92.6352 40.6958 92.906 40.925 93.2602 41.1542 93.6039 41.3312 94.0258 41.4562 94.5258 41.5812 95.0258 41.6437 95.7029 41.6437 96.557 41.6437 97.5675 41.5396 98.38 41.3312 98.9945 41.1333 99.6091 40.826 100.088 40.4094 100.432 40.0031 100.765 39.4823 100.932 38.8469 100.932 38.024 100.932 37.3729 100.635 36.8937 100.041 36.3312 99.3331 36.05 98.1716 36.05 96.557ZM37.1281 96.557C37.1281 97.9633 37.2948 98.9008 37.6281 99.3695 37.9615 99.8383 38.3677 100.073 38.8469 100.073 39.3365 100.073 39.7427 99.8383 40.0656 99.3695 40.399 98.9008 40.5656 97.9633 40.5656 96.557 40.5656 95.1404 40.399 94.2029 40.0656 93.7445 39.7427 93.2758 39.3312 93.0414 38.8312 93.0414 38.3521 93.0414 37.9667 93.2445 37.675 93.6508 37.3104 94.1716 37.1281 95.1404 37.1281 96.557ZM43.2531 94.2602C43.2531 93.6456 43.4042 93.1247 43.7062 92.6977 44.0187 92.2706 44.4667 92.057 45.05 92.057 45.5917 92.057 46.0396 92.2497 46.3937 92.6352 46.7479 93.0206 46.925 93.5831 46.925 94.3227 46.925 95.0518 46.7427 95.6143 46.3781 96.0102 46.024 96.3956 45.5865 96.5883 45.0656 96.5883 44.5448 96.5883 44.1125 96.3956 43.7687 96.0102 43.425 95.6247 43.2531 95.0414 43.2531 94.2602ZM45.0812 92.7758C44.8208 92.7758 44.6021 92.8904 44.425 93.1195 44.2583 93.3487 44.175 93.7654 44.175 94.3695 44.175 94.9216 44.2583 95.3122 44.425 95.5414 44.6021 95.7602 44.8208 95.8695 45.0812 95.8695 45.3521 95.8695 45.5708 95.755 45.7375 95.5258 45.9146 95.2966 46.0031 94.8852 46.0031 94.2914 46.0031 93.7289 45.9146 93.3383 45.7375 93.1195 45.5604 92.8904 45.3417 92.7758 45.0812 92.7758ZM45.0812 101.104 49.7844 92.057 50.6437 92.057 45.9562 101.104 45.0812 101.104ZM48.8 98.7758C48.8 98.1612 48.951 97.6404 49.2531 97.2133 49.5656 96.7862 50.0187 96.5727 50.6125 96.5727 51.1542 96.5727 51.6021 96.7654 51.9562 97.1508 52.3104 97.5258 52.4875 98.0883 52.4875 98.8383 52.4875 99.5675 52.3052 100.13 51.9406 100.526 51.5865 100.911 51.1437 101.104 50.6125 101.104 50.1021 101.104 49.6698 100.911 49.3156 100.526 48.9719 100.14 48.8 99.557 48.8 98.7758ZM50.6437 97.2914C50.3729 97.2914 50.149 97.406 49.9719 97.6352 49.8052 97.8643 49.7219 98.281 49.7219 98.8852 49.7219 99.4268 49.8104 99.8122 49.9875 100.041 50.1646 100.271 50.3833 100.385 50.6437 100.385 50.9042 100.385 51.1229 100.271 51.3 100.041 51.4771 99.8122 51.5656 99.3956 51.5656 98.7914 51.5656 98.2393 51.4771 97.8539 51.3 97.6352 51.1229 97.406 50.9042 97.2914 50.6437 97.2914Z" fill="#9E9E9E"/><path d="M18.55 88.2914 127.05 88.2914 174.679 88.2914" stroke="#757575" stroke-linecap="butt"/><path d="M176.679 88.2914C176.679 87.1868 175.784 86.2914 174.679 86.2914 173.575 86.2914 172.679 87.1868 172.679 88.2914 172.679 89.396 173.575 90.2914 174.679 90.2914 175.784 90.2914 176.679 89.396 176.679 88.2914" fill="#9E9E9E"/><path d="M500.372 58.7947 500.372 50.2009 501.528 50.2009 506.044 56.9509 506.044 50.2009 507.138 50.2009 507.138 58.7947 505.966 58.7947 501.45 52.0447 501.45 58.7947 500.372 58.7947ZM513.309 58.029C512.914 58.3624 512.533 58.5968 512.169 58.7322 511.815 58.8676 511.429 58.9353 511.013 58.9353 510.325 58.9353 509.799 58.7686 509.434 58.4353 509.07 58.102 508.888 57.6749 508.888 57.154 508.888 56.852 508.955 56.5759 509.091 56.3259 509.226 56.0655 509.408 55.8624 509.638 55.7165 509.867 55.5603 510.122 55.4457 510.403 55.3728 510.601 55.3103 510.914 55.253 511.341 55.2009 512.184 55.1072 512.809 54.9874 513.216 54.8415 513.216 54.6957 513.216 54.6072 513.216 54.5759 513.216 54.1384 513.117 53.8311 512.919 53.654 512.648 53.4249 512.247 53.3103 511.716 53.3103 511.226 53.3103 510.861 53.3988 510.622 53.5759 510.382 53.7426 510.205 54.0447 510.091 54.4822L509.059 54.3415C509.153 53.904 509.309 53.5499 509.528 53.279 509.747 53.0082 510.059 52.7999 510.466 52.654 510.872 52.5082 511.341 52.4353 511.872 52.4353 512.403 52.4353 512.835 52.4978 513.169 52.6228 513.502 52.7478 513.747 52.904 513.903 53.0915 514.059 53.279 514.169 53.5186 514.231 53.8103 514.263 53.9874 514.278 54.3103 514.278 54.779L514.278 56.1853C514.278 57.1645 514.299 57.7843 514.341 58.0447 514.393 58.3051 514.486 58.5551 514.622 58.7947L513.513 58.7947C513.408 58.5759 513.341 58.3207 513.309 58.029ZM513.216 55.6697C512.83 55.8259 512.257 55.9613 511.497 56.0759 511.059 56.1384 510.752 56.2113 510.575 56.2947 510.398 56.3676 510.257 56.477 510.153 56.6228 510.059 56.7686 510.013 56.9353 510.013 57.1228 510.013 57.404 510.117 57.6384 510.325 57.8259 510.544 58.0134 510.856 58.1072 511.263 58.1072 511.669 58.1072 512.028 58.0186 512.341 57.8415 512.664 57.6645 512.898 57.4197 513.044 57.1072 513.158 56.8676 513.216 56.5186 513.216 56.0603L513.216 55.6697ZM516.247 58.7947 516.247 52.5759 517.184 52.5759 517.184 53.4509C517.382 53.1384 517.643 52.8936 517.966 52.7165 518.289 52.529 518.658 52.4353 519.075 52.4353 519.533 52.4353 519.908 52.529 520.2 52.7165 520.502 52.904 520.71 53.1697 520.825 53.5134 521.325 52.7947 521.966 52.4353 522.747 52.4353 523.372 52.4353 523.846 52.6072 524.169 52.9509 524.502 53.2843 524.669 53.8103 524.669 54.529L524.669 58.7947 523.622 58.7947 523.622 54.8728C523.622 54.4561 523.585 54.154 523.513 53.9665 523.45 53.779 523.33 53.628 523.153 53.5134 522.976 53.3988 522.763 53.3415 522.513 53.3415 522.075 53.3415 521.71 53.4874 521.419 53.779 521.138 54.0707 520.997 54.5395 520.997 55.1853L520.997 58.7947 519.934 58.7947 519.934 54.7478C519.934 54.279 519.846 53.9301 519.669 53.7009 519.502 53.4613 519.226 53.3415 518.841 53.3415 518.539 53.3415 518.263 53.4197 518.013 53.5759 517.763 53.7322 517.58 53.9613 517.466 54.2634 517.351 54.5655 517.294 54.9978 517.294 55.5603L517.294 58.7947 516.247 58.7947ZM530.497 56.7947 531.591 56.9197C531.424 57.5551 531.106 58.0499 530.638 58.404 530.169 58.7582 529.575 58.9353 528.856 58.9353 527.95 58.9353 527.226 58.654 526.684 58.0915 526.153 57.529 525.888 56.7426 525.888 55.7322 525.888 54.6905 526.158 53.8832 526.7 53.3103 527.242 52.727 527.94 52.4353 528.794 52.4353 529.627 52.4353 530.304 52.7165 530.825 53.279 531.356 53.8415 531.622 54.6384 531.622 55.6697 531.622 55.7322 531.622 55.8259 531.622 55.9509L526.981 55.9509C527.023 56.6384 527.216 57.1645 527.559 57.529 527.903 57.8832 528.335 58.0603 528.856 58.0603 529.242 58.0603 529.57 57.9613 529.841 57.7634 530.122 57.5551 530.341 57.2322 530.497 56.7947ZM527.044 55.0915 530.513 55.0915C530.471 54.5603 530.341 54.1645 530.122 53.904 529.778 53.4978 529.341 53.2947 528.809 53.2947 528.32 53.2947 527.908 53.4561 527.575 53.779 527.252 54.102 527.075 54.5395 527.044 55.0915ZM537.278 58.7947 537.278 58.0134C536.882 58.628 536.304 58.9353 535.544 58.9353 535.044 58.9353 534.585 58.7999 534.169 58.529 533.752 58.2478 533.429 57.8624 533.2 57.3728 532.971 56.8832 532.856 56.3207 532.856 55.6853 532.856 55.0707 532.96 54.5082 533.169 53.9978 533.377 53.4874 533.69 53.102 534.106 52.8415 534.523 52.5707 534.986 52.4353 535.497 52.4353 535.872 52.4353 536.205 52.5134 536.497 52.6697 536.789 52.8259 537.028 53.029 537.216 53.279L537.216 50.2009 538.263 50.2009 538.263 58.7947 537.278 58.7947ZM533.95 55.6853C533.95 56.4874 534.117 57.0863 534.45 57.4822 534.783 57.8676 535.179 58.0603 535.638 58.0603 536.096 58.0603 536.486 57.8728 536.809 57.4978 537.132 57.1228 537.294 56.5499 537.294 55.779 537.294 54.9249 537.127 54.2999 536.794 53.904 536.471 53.5082 536.07 53.3103 535.591 53.3103 535.122 53.3103 534.731 53.503 534.419 53.8884 534.106 54.2634 533.95 54.8624 533.95 55.6853ZM547.497 56.7947 548.591 56.9197C548.424 57.5551 548.106 58.0499 547.638 58.404 547.169 58.7582 546.575 58.9353 545.856 58.9353 544.95 58.9353 544.226 58.654 543.684 58.0915 543.153 57.529 542.888 56.7426 542.888 55.7322 542.888 54.6905 543.158 53.8832 543.7 53.3103 544.242 52.727 544.94 52.4353 545.794 52.4353 546.627 52.4353 547.304 52.7165 547.825 53.279 548.356 53.8415 548.622 54.6384 548.622 55.6697 548.622 55.7322 548.622 55.8259 548.622 55.9509L543.981 55.9509C544.023 56.6384 544.216 57.1645 544.559 57.529 544.903 57.8832 545.335 58.0603 545.856 58.0603 546.242 58.0603 546.57 57.9613 546.841 57.7634 547.122 57.5551 547.341 57.2322 547.497 56.7947ZM544.044 55.0915 547.513 55.0915C547.471 54.5603 547.341 54.1645 547.122 53.904 546.778 53.4978 546.341 53.2947 545.809 53.2947 545.32 53.2947 544.908 53.4561 544.575 53.779 544.252 54.102 544.075 54.5395 544.044 55.0915ZM550.247 58.7947 550.247 52.5759 551.184 52.5759 551.184 53.4509C551.643 52.7738 552.304 52.4353 553.169 52.4353 553.544 52.4353 553.888 52.503 554.2 52.6384 554.523 52.7738 554.763 52.9509 554.919 53.1697 555.075 53.3884 555.184 53.6436 555.247 53.9353 555.278 54.1332 555.294 54.477 555.294 54.9665L555.294 58.7947 554.247 58.7947 554.247 55.0134C554.247 54.5759 554.205 54.253 554.122 54.0447 554.039 53.8363 553.893 53.6697 553.684 53.5447 553.476 53.4093 553.231 53.3415 552.95 53.3415 552.502 53.3415 552.111 53.4874 551.778 53.779 551.455 54.0603 551.294 54.5968 551.294 55.3884L551.294 58.7947 550.247 58.7947ZM559.544 57.8572 559.7 58.779C559.398 58.8415 559.132 58.8728 558.903 58.8728 558.518 58.8728 558.221 58.8155 558.013 58.7009 557.804 58.5759 557.653 58.4145 557.559 58.2165 557.476 58.0186 557.434 57.602 557.434 56.9665L557.434 53.3884 556.669 53.3884 556.669 52.5759 557.434 52.5759 557.434 51.029 558.481 50.404 558.481 52.5759 559.544 52.5759 559.544 53.3884 558.481 53.3884 558.481 57.029C558.481 57.3311 558.497 57.5238 558.528 57.6072 558.57 57.6905 558.632 57.7582 558.716 57.8103 558.799 57.8624 558.919 57.8884 559.075 57.8884 559.2 57.8884 559.356 57.878 559.544 57.8572ZM560.247 51.4197 560.247 50.2009 561.309 50.2009 561.309 51.4197 560.247 51.4197ZM560.247 58.7947 560.247 52.5759 561.309 52.5759 561.309 58.7947 560.247 58.7947ZM565.544 57.8572 565.7 58.779C565.398 58.8415 565.132 58.8728 564.903 58.8728 564.518 58.8728 564.221 58.8155 564.013 58.7009 563.804 58.5759 563.653 58.4145 563.559 58.2165 563.476 58.0186 563.434 57.602 563.434 56.9665L563.434 53.3884 562.669 53.3884 562.669 52.5759 563.434 52.5759 563.434 51.029 564.481 50.404 564.481 52.5759 565.544 52.5759 565.544 53.3884 564.481 53.3884 564.481 57.029C564.481 57.3311 564.497 57.5238 564.528 57.6072 564.57 57.6905 564.632 57.7582 564.716 57.8103 564.799 57.8624 564.919 57.8884 565.075 57.8884 565.2 57.8884 565.356 57.878 565.544 57.8572ZM566.247 51.4197 566.247 50.2009 567.309 50.2009 567.309 51.4197 566.247 51.4197ZM566.247 58.7947 566.247 52.5759 567.309 52.5759 567.309 58.7947 566.247 58.7947ZM573.497 56.7947 574.591 56.9197C574.424 57.5551 574.106 58.0499 573.638 58.404 573.169 58.7582 572.575 58.9353 571.856 58.9353 570.95 58.9353 570.226 58.654 569.684 58.0915 569.153 57.529 568.888 56.7426 568.888 55.7322 568.888 54.6905 569.158 53.8832 569.7 53.3103 570.242 52.727 570.94 52.4353 571.794 52.4353 572.627 52.4353 573.304 52.7165 573.825 53.279 574.356 53.8415 574.622 54.6384 574.622 55.6697 574.622 55.7322 574.622 55.8259 574.622 55.9509L569.981 55.9509C570.023 56.6384 570.216 57.1645 570.559 57.529 570.903 57.8832 571.335 58.0603 571.856 58.0603 572.242 58.0603 572.57 57.9613 572.841 57.7634 573.122 57.5551 573.341 57.2322 573.497 56.7947ZM570.044 55.0915 573.513 55.0915C573.471 54.5603 573.341 54.1645 573.122 53.904 572.778 53.4978 572.341 53.2947 571.809 53.2947 571.32 53.2947 570.908 53.4561 570.575 53.779 570.252 54.102 570.075 54.5395 570.044 55.0915ZM575.825 56.9353 576.856 56.779C576.919 57.1957 577.08 57.5134 577.341 57.7322 577.611 57.9509 577.992 58.0603 578.481 58.0603 578.96 58.0603 579.315 57.9665 579.544 57.779 579.783 57.5811 579.903 57.3468 579.903 57.0759 579.903 56.8363 579.799 56.6488 579.591 56.5134 579.445 56.4197 579.085 56.2999 578.513 56.154 577.742 55.9561 577.205 55.7895 576.903 55.654 576.611 55.5082 576.388 55.3103 576.231 55.0603 576.075 54.8103 575.997 54.529 575.997 54.2165 575.997 53.9457 576.059 53.6905 576.184 53.4509 576.309 53.2113 576.481 53.0134 576.7 52.8572 576.867 52.7426 577.091 52.6436 577.372 52.5603 577.653 52.477 577.96 52.4353 578.294 52.4353 578.773 52.4353 579.195 52.5082 579.559 52.654 579.934 52.7895 580.21 52.977 580.388 53.2165 580.565 53.4561 580.684 53.7738 580.747 54.1697L579.716 54.3103C579.674 53.9978 579.539 53.753 579.309 53.5759 579.091 53.3884 578.773 53.2947 578.356 53.2947 577.877 53.2947 577.533 53.378 577.325 53.5447 577.117 53.7009 577.013 53.8884 577.013 54.1072 577.013 54.2426 577.054 54.3624 577.138 54.4665 577.231 54.5811 577.367 54.6749 577.544 54.7478 577.648 54.7895 577.96 54.878 578.481 55.0134 579.231 55.2218 579.752 55.3884 580.044 55.5134 580.335 55.6384 580.565 55.8207 580.731 56.0603 580.898 56.2999 580.981 56.602 580.981 56.9665 580.981 57.3207 580.877 57.654 580.669 57.9665 580.471 58.2686 580.179 58.5082 579.794 58.6853 579.408 58.852 578.971 58.9353 578.481 58.9353 577.669 58.9353 577.049 58.7686 576.622 58.4353 576.205 58.0915 575.94 57.5915 575.825 56.9353Z" fill="#1A1A1A"/><path d="M552.497 74.779 552.497 75.7947 546.809 75.7947C546.809 75.5447 546.851 75.2999 546.934 75.0603 547.08 74.6749 547.309 74.2947 547.622 73.9197 547.945 73.5447 548.408 73.1124 549.013 72.6228 549.95 71.852 550.58 71.2426 550.903 70.7947 551.236 70.3468 551.403 69.9249 551.403 69.529 551.403 69.1124 551.252 68.7634 550.95 68.4822 550.648 68.1905 550.257 68.0447 549.778 68.0447 549.268 68.0447 548.861 68.1957 548.559 68.4978 548.257 68.7999 548.101 69.2218 548.091 69.7634L547.013 69.654C547.085 68.8415 547.361 68.227 547.841 67.8103 548.33 67.3832 548.986 67.1697 549.809 67.1697 550.632 67.1697 551.283 67.3988 551.763 67.8572 552.242 68.3155 552.481 68.8832 552.481 69.5603 552.481 69.904 552.408 70.2426 552.263 70.5759 552.127 70.8988 551.893 71.2478 551.559 71.6228 551.236 71.9874 550.7 72.4874 549.95 73.1228 549.315 73.654 548.903 74.0186 548.716 74.2165 548.539 74.404 548.393 74.5915 548.278 74.779L552.497 74.779ZM559.497 74.779 559.497 75.7947 553.809 75.7947C553.809 75.5447 553.851 75.2999 553.934 75.0603 554.08 74.6749 554.309 74.2947 554.622 73.9197 554.945 73.5447 555.408 73.1124 556.013 72.6228 556.95 71.852 557.58 71.2426 557.903 70.7947 558.236 70.3468 558.403 69.9249 558.403 69.529 558.403 69.1124 558.252 68.7634 557.95 68.4822 557.648 68.1905 557.257 68.0447 556.778 68.0447 556.268 68.0447 555.861 68.1957 555.559 68.4978 555.257 68.7999 555.101 69.2218 555.091 69.7634L554.013 69.654C554.085 68.8415 554.361 68.227 554.841 67.8103 555.33 67.3832 555.986 67.1697 556.809 67.1697 557.632 67.1697 558.283 67.3988 558.763 67.8572 559.242 68.3155 559.481 68.8832 559.481 69.5603 559.481 69.904 559.408 70.2426 559.263 70.5759 559.127 70.8988 558.893 71.2478 558.559 71.6228 558.236 71.9874 557.7 72.4874 556.95 73.1228 556.315 73.654 555.903 74.0186 555.716 74.2165 555.539 74.404 555.393 74.5915 555.278 74.779L559.497 74.779ZM561.513 75.7947 561.513 74.5915 562.716 74.5915 562.716 75.7947C562.716 76.2322 562.638 76.5863 562.481 76.8572 562.325 77.1384 562.08 77.352 561.747 77.4978L561.45 77.0447C561.669 76.9509 561.83 76.8051 561.934 76.6072 562.039 76.4197 562.101 76.1488 562.122 75.7947L561.513 75.7947ZM563.95 71.5603C563.95 70.5395 564.054 69.7218 564.263 69.1072 564.471 68.4822 564.778 68.003 565.184 67.6697 565.601 67.3363 566.122 67.1697 566.747 67.1697 567.205 67.1697 567.606 67.2634 567.95 67.4509 568.304 67.6384 568.596 67.9093 568.825 68.2634 569.054 68.6072 569.231 69.029 569.356 69.529 569.481 70.029 569.544 70.7061 569.544 71.5603 569.544 72.5707 569.44 73.3832 569.231 73.9978 569.033 74.6124 568.726 75.0915 568.309 75.4353 567.903 75.7686 567.382 75.9353 566.747 75.9353 565.924 75.9353 565.273 75.6384 564.794 75.0447 564.231 74.3363 563.95 73.1749 563.95 71.5603ZM565.028 71.5603C565.028 72.9665 565.195 73.904 565.528 74.3728 565.861 74.8415 566.268 75.0759 566.747 75.0759 567.236 75.0759 567.643 74.8415 567.966 74.3728 568.299 73.904 568.466 72.9665 568.466 71.5603 568.466 70.1436 568.299 69.2061 567.966 68.7478 567.643 68.279 567.231 68.0447 566.731 68.0447 566.252 68.0447 565.867 68.2478 565.575 68.654 565.21 69.1749 565.028 70.1436 565.028 71.5603ZM571.153 69.2634C571.153 68.6488 571.304 68.128 571.606 67.7009 571.919 67.2738 572.367 67.0603 572.95 67.0603 573.492 67.0603 573.94 67.253 574.294 67.6384 574.648 68.0238 574.825 68.5863 574.825 69.3259 574.825 70.0551 574.643 70.6176 574.278 71.0134 573.924 71.3988 573.486 71.5915 572.966 71.5915 572.445 71.5915 572.013 71.3988 571.669 71.0134 571.325 70.628 571.153 70.0447 571.153 69.2634ZM572.981 67.779C572.721 67.779 572.502 67.8936 572.325 68.1228 572.158 68.352 572.075 68.7686 572.075 69.3728 572.075 69.9249 572.158 70.3155 572.325 70.5447 572.502 70.7634 572.721 70.8728 572.981 70.8728 573.252 70.8728 573.471 70.7582 573.638 70.529 573.815 70.2999 573.903 69.8884 573.903 69.2947 573.903 68.7322 573.815 68.3415 573.638 68.1228 573.46 67.8936 573.242 67.779 572.981 67.779ZM572.981 76.1072 577.684 67.0603 578.544 67.0603 573.856 76.1072 572.981 76.1072ZM576.7 73.779C576.7 73.1645 576.851 72.6436 577.153 72.2165 577.466 71.7895 577.919 71.5759 578.513 71.5759 579.054 71.5759 579.502 71.7686 579.856 72.154 580.21 72.529 580.388 73.0915 580.388 73.8415 580.388 74.5707 580.205 75.1332 579.841 75.529 579.486 75.9145 579.044 76.1072 578.513 76.1072 578.002 76.1072 577.57 75.9145 577.216 75.529 576.872 75.1436 576.7 74.5603 576.7 73.779ZM578.544 72.2947C578.273 72.2947 578.049 72.4093 577.872 72.6384 577.705 72.8676 577.622 73.2843 577.622 73.8884 577.622 74.4301 577.71 74.8155 577.888 75.0447 578.065 75.2738 578.283 75.3884 578.544 75.3884 578.804 75.3884 579.023 75.2738 579.2 75.0447 579.377 74.8155 579.466 74.3988 579.466 73.7947 579.466 73.2426 579.377 72.8572 579.2 72.6384 579.023 72.4093 578.804 72.2947 578.544 72.2947Z" fill="#9E9E9E"/><path d="M581.45 63.2947 472.95 63.2947 401.097 63.2947" stroke="#757575" stroke-linecap="butt"/><path d="M403.097 63.2947C403.097 62.1901 402.202 61.2947 401.097 61.2947 399.992 61.2947 399.097 62.1901 399.097 63.2947 399.097 64.3992 399.992 65.2947 401.097 65.2947 402.202 65.2947 403.097 64.3992 403.097 63.2947" fill="#9E9E9E"/><path d="M500.997 329.684 502.059 329.591C502.111 330.028 502.231 330.382 502.419 330.653 502.606 330.924 502.893 331.148 503.278 331.325 503.674 331.492 504.117 331.575 504.606 331.575 505.033 331.575 505.414 331.513 505.747 331.388 506.08 331.252 506.325 331.075 506.481 330.856 506.648 330.627 506.731 330.382 506.731 330.122 506.731 329.851 506.653 329.617 506.497 329.419 506.341 329.21 506.085 329.039 505.731 328.903 505.492 328.809 504.976 328.669 504.184 328.481 503.403 328.294 502.856 328.117 502.544 327.95 502.127 327.731 501.82 327.466 501.622 327.153 501.424 326.83 501.325 326.471 501.325 326.075 501.325 325.648 501.445 325.247 501.684 324.872 501.934 324.486 502.294 324.2 502.763 324.013 503.242 323.815 503.768 323.716 504.341 323.716 504.976 323.716 505.539 323.82 506.028 324.028 506.518 324.226 506.893 324.528 507.153 324.934 507.414 325.33 507.554 325.778 507.575 326.278L506.481 326.356C506.419 325.815 506.216 325.408 505.872 325.138 505.539 324.856 505.044 324.716 504.388 324.716 503.7 324.716 503.2 324.841 502.888 325.091 502.575 325.341 502.419 325.643 502.419 325.997 502.419 326.309 502.528 326.565 502.747 326.763 502.966 326.96 503.533 327.164 504.45 327.372 505.377 327.58 506.013 327.763 506.356 327.919 506.856 328.158 507.226 328.455 507.466 328.809 507.705 329.153 507.825 329.559 507.825 330.028 507.825 330.486 507.695 330.919 507.434 331.325 507.174 331.721 506.799 332.033 506.309 332.263 505.82 332.481 505.268 332.591 504.653 332.591 503.872 332.591 503.216 332.481 502.684 332.263 502.164 332.033 501.752 331.69 501.45 331.231 501.158 330.773 501.007 330.257 500.997 329.684ZM509.247 325.075 509.247 323.856 510.309 323.856 510.309 325.075 509.247 325.075ZM509.247 332.45 509.247 326.231 510.309 326.231 510.309 332.45 509.247 332.45ZM512.247 332.45 512.247 326.231 513.184 326.231 513.184 327.106C513.643 326.429 514.304 326.091 515.169 326.091 515.544 326.091 515.888 326.158 516.2 326.294 516.523 326.429 516.763 326.606 516.919 326.825 517.075 327.044 517.184 327.299 517.247 327.591 517.278 327.789 517.294 328.132 517.294 328.622L517.294 332.45 516.247 332.45 516.247 328.669C516.247 328.231 516.205 327.908 516.122 327.7 516.039 327.492 515.893 327.325 515.684 327.2 515.476 327.065 515.231 326.997 514.95 326.997 514.502 326.997 514.111 327.143 513.778 327.434 513.455 327.716 513.294 328.252 513.294 329.044L513.294 332.45 512.247 332.45ZM519.044 332.966 520.075 333.122C520.117 333.434 520.236 333.664 520.434 333.809 520.695 334.007 521.049 334.106 521.497 334.106 521.986 334.106 522.361 334.007 522.622 333.809 522.893 333.611 523.075 333.341 523.169 332.997 523.231 332.778 523.257 332.325 523.247 331.638 522.789 332.179 522.216 332.45 521.528 332.45 520.674 332.45 520.013 332.143 519.544 331.528 519.075 330.903 518.841 330.164 518.841 329.309 518.841 328.716 518.945 328.169 519.153 327.669 519.372 327.158 519.684 326.768 520.091 326.497 520.497 326.226 520.976 326.091 521.528 326.091 522.268 326.091 522.877 326.388 523.356 326.981L523.356 326.231 524.325 326.231 524.325 331.606C524.325 332.575 524.226 333.263 524.028 333.669 523.83 334.075 523.518 334.393 523.091 334.622 522.664 334.861 522.138 334.981 521.513 334.981 520.773 334.981 520.174 334.815 519.716 334.481 519.257 334.148 519.033 333.643 519.044 332.966ZM519.919 329.231C519.919 330.044 520.08 330.638 520.403 331.013 520.726 331.388 521.132 331.575 521.622 331.575 522.111 331.575 522.518 331.388 522.841 331.013 523.174 330.638 523.341 330.054 523.341 329.263 523.341 328.502 523.169 327.929 522.825 327.544 522.492 327.158 522.085 326.966 521.606 326.966 521.138 326.966 520.736 327.158 520.403 327.544 520.08 327.919 519.919 328.481 519.919 329.231ZM530.325 332.45 530.325 331.528C529.835 332.236 529.174 332.591 528.341 332.591 527.976 332.591 527.632 332.523 527.309 332.388 526.997 332.242 526.763 332.065 526.606 331.856 526.45 331.638 526.341 331.372 526.278 331.059 526.236 330.861 526.216 330.533 526.216 330.075L526.216 326.231 527.278 326.231 527.278 329.684C527.278 330.226 527.299 330.596 527.341 330.794 527.403 331.065 527.539 331.283 527.747 331.45 527.966 331.606 528.236 331.684 528.559 331.684 528.872 331.684 529.164 331.606 529.434 331.45 529.716 331.283 529.914 331.059 530.028 330.778 530.153 330.497 530.216 330.091 530.216 329.559L530.216 326.231 531.263 326.231 531.263 332.45 530.325 332.45ZM533.216 332.45 533.216 323.856 534.278 323.856 534.278 332.45 533.216 332.45ZM540.309 331.684C539.914 332.018 539.533 332.252 539.169 332.388 538.815 332.523 538.429 332.591 538.013 332.591 537.325 332.591 536.799 332.424 536.434 332.091 536.07 331.757 535.888 331.33 535.888 330.809 535.888 330.507 535.955 330.231 536.091 329.981 536.226 329.721 536.408 329.518 536.638 329.372 536.867 329.216 537.122 329.101 537.403 329.028 537.601 328.966 537.914 328.908 538.341 328.856 539.184 328.763 539.809 328.643 540.216 328.497 540.216 328.351 540.216 328.263 540.216 328.231 540.216 327.794 540.117 327.486 539.919 327.309 539.648 327.08 539.247 326.966 538.716 326.966 538.226 326.966 537.861 327.054 537.622 327.231 537.382 327.398 537.205 327.7 537.091 328.138L536.059 327.997C536.153 327.559 536.309 327.205 536.528 326.934 536.747 326.664 537.059 326.455 537.466 326.309 537.872 326.164 538.341 326.091 538.872 326.091 539.403 326.091 539.835 326.153 540.169 326.278 540.502 326.403 540.747 326.559 540.903 326.747 541.059 326.934 541.169 327.174 541.231 327.466 541.263 327.643 541.278 327.966 541.278 328.434L541.278 329.841C541.278 330.82 541.299 331.44 541.341 331.7 541.393 331.96 541.486 332.21 541.622 332.45L540.513 332.45C540.408 332.231 540.341 331.976 540.309 331.684ZM540.216 329.325C539.83 329.481 539.257 329.617 538.497 329.731 538.059 329.794 537.752 329.867 537.575 329.95 537.398 330.023 537.257 330.132 537.153 330.278 537.059 330.424 537.013 330.591 537.013 330.778 537.013 331.059 537.117 331.294 537.325 331.481 537.544 331.669 537.856 331.763 538.263 331.763 538.669 331.763 539.028 331.674 539.341 331.497 539.664 331.32 539.898 331.075 540.044 330.763 540.158 330.523 540.216 330.174 540.216 329.716L540.216 329.325ZM543.231 332.45 543.231 326.231 544.184 326.231 544.184 327.169C544.424 326.731 544.643 326.445 544.841 326.309 545.049 326.164 545.278 326.091 545.528 326.091 545.882 326.091 546.242 326.2 546.606 326.419L546.247 327.403C545.986 327.247 545.731 327.169 545.481 327.169 545.242 327.169 545.028 327.242 544.841 327.388 544.664 327.523 544.539 327.716 544.466 327.966 544.341 328.341 544.278 328.747 544.278 329.184L544.278 332.45 543.231 332.45ZM550.372 332.45 550.372 323.856 551.528 323.856 556.044 330.606 556.044 323.856 557.138 323.856 557.138 332.45 555.966 332.45 551.45 325.7 551.45 332.45 550.372 332.45ZM559.372 332.45 559.372 323.856 560.528 323.856 565.044 330.606 565.044 323.856 566.138 323.856 566.138 332.45 564.966 332.45 560.45 325.7 560.45 332.45 559.372 332.45ZM568.403 332.45 568.403 323.856 574.606 323.856 574.606 324.872 569.544 324.872 569.544 327.497 574.294 327.497 574.294 328.513 569.544 328.513 569.544 331.434 574.809 331.434 574.809 332.45 568.403 332.45ZM575.825 330.591 576.856 330.434C576.919 330.851 577.08 331.169 577.341 331.388 577.611 331.606 577.992 331.716 578.481 331.716 578.96 331.716 579.315 331.622 579.544 331.434 579.783 331.236 579.903 331.002 579.903 330.731 579.903 330.492 579.799 330.304 579.591 330.169 579.445 330.075 579.085 329.955 578.513 329.809 577.742 329.611 577.205 329.445 576.903 329.309 576.611 329.164 576.388 328.966 576.231 328.716 576.075 328.466 575.997 328.184 575.997 327.872 575.997 327.601 576.059 327.346 576.184 327.106 576.309 326.867 576.481 326.669 576.7 326.513 576.867 326.398 577.091 326.299 577.372 326.216 577.653 326.132 577.96 326.091 578.294 326.091 578.773 326.091 579.195 326.164 579.559 326.309 579.934 326.445 580.21 326.632 580.388 326.872 580.565 327.111 580.684 327.429 580.747 327.825L579.716 327.966C579.674 327.653 579.539 327.408 579.309 327.231 579.091 327.044 578.773 326.95 578.356 326.95 577.877 326.95 577.533 327.033 577.325 327.2 577.117 327.356 577.013 327.544 577.013 327.763 577.013 327.898 577.054 328.018 577.138 328.122 577.231 328.236 577.367 328.33 577.544 328.403 577.648 328.445 577.96 328.533 578.481 328.669 579.231 328.877 579.752 329.044 580.044 329.169 580.335 329.294 580.565 329.476 580.731 329.716 580.898 329.955 580.981 330.257 580.981 330.622 580.981 330.976 580.877 331.309 580.669 331.622 580.471 331.924 580.179 332.164 579.794 332.341 579.408 332.507 578.971 332.591 578.481 332.591 577.669 332.591 577.049 332.424 576.622 332.091 576.205 331.747 575.94 331.247 575.825 330.591Z" fill="#1A1A1A"/><path d="M550.325 349.45 550.325 347.388 546.606 347.388 546.606 346.419 550.528 340.856 551.388 340.856 551.388 346.419 552.544 346.419 552.544 347.388 551.388 347.388 551.388 349.45 550.325 349.45ZM550.325 346.419 550.325 342.559 547.638 346.419 550.325 346.419ZM554.106 347.466 555.122 347.372C555.205 347.851 555.367 348.2 555.606 348.419 555.856 348.627 556.169 348.731 556.544 348.731 556.867 348.731 557.148 348.658 557.388 348.513 557.638 348.356 557.841 348.158 557.997 347.919 558.153 347.669 558.283 347.335 558.388 346.919 558.492 346.492 558.544 346.059 558.544 345.622 558.544 345.57 558.544 345.497 558.544 345.403 558.335 345.736 558.049 346.013 557.684 346.231 557.32 346.44 556.924 346.544 556.497 346.544 555.778 346.544 555.174 346.289 554.684 345.778 554.195 345.257 553.95 344.575 553.95 343.731 553.95 342.856 554.205 342.153 554.716 341.622 555.236 341.091 555.882 340.825 556.653 340.825 557.205 340.825 557.71 340.976 558.169 341.278 558.638 341.58 558.992 342.013 559.231 342.575 559.471 343.127 559.591 343.929 559.591 344.981 559.591 346.075 559.471 346.95 559.231 347.606 559.002 348.252 558.648 348.747 558.169 349.091 557.7 349.424 557.153 349.591 556.528 349.591 555.851 349.591 555.299 349.408 554.872 349.044 554.445 348.669 554.19 348.143 554.106 347.466ZM558.419 343.669C558.419 343.065 558.257 342.585 557.934 342.231 557.622 341.877 557.236 341.7 556.778 341.7 556.309 341.7 555.898 341.893 555.544 342.278 555.2 342.653 555.028 343.148 555.028 343.763 555.028 344.304 555.195 344.747 555.528 345.091 555.861 345.434 556.268 345.606 556.747 345.606 557.236 345.606 557.638 345.434 557.95 345.091 558.263 344.747 558.419 344.273 558.419 343.669ZM561.513 349.45 561.513 348.247 562.716 348.247 562.716 349.45C562.716 349.888 562.638 350.242 562.481 350.513 562.325 350.794 562.08 351.007 561.747 351.153L561.45 350.7C561.669 350.606 561.83 350.46 561.934 350.263 562.039 350.075 562.101 349.804 562.122 349.45L561.513 349.45ZM563.95 345.216C563.95 344.195 564.054 343.377 564.263 342.763 564.471 342.138 564.778 341.658 565.184 341.325 565.601 340.992 566.122 340.825 566.747 340.825 567.205 340.825 567.606 340.919 567.95 341.106 568.304 341.294 568.596 341.565 568.825 341.919 569.054 342.263 569.231 342.684 569.356 343.184 569.481 343.684 569.544 344.361 569.544 345.216 569.544 346.226 569.44 347.039 569.231 347.653 569.033 348.268 568.726 348.747 568.309 349.091 567.903 349.424 567.382 349.591 566.747 349.591 565.924 349.591 565.273 349.294 564.794 348.7 564.231 347.992 563.95 346.83 563.95 345.216ZM565.028 345.216C565.028 346.622 565.195 347.559 565.528 348.028 565.861 348.497 566.268 348.731 566.747 348.731 567.236 348.731 567.643 348.497 567.966 348.028 568.299 347.559 568.466 346.622 568.466 345.216 568.466 343.799 568.299 342.861 567.966 342.403 567.643 341.934 567.231 341.7 566.731 341.7 566.252 341.7 565.867 341.903 565.575 342.309 565.21 342.83 565.028 343.799 565.028 345.216ZM571.153 342.919C571.153 342.304 571.304 341.783 571.606 341.356 571.919 340.929 572.367 340.716 572.95 340.716 573.492 340.716 573.94 340.908 574.294 341.294 574.648 341.679 574.825 342.242 574.825 342.981 574.825 343.71 574.643 344.273 574.278 344.669 573.924 345.054 573.486 345.247 572.966 345.247 572.445 345.247 572.013 345.054 571.669 344.669 571.325 344.283 571.153 343.7 571.153 342.919ZM572.981 341.434C572.721 341.434 572.502 341.549 572.325 341.778 572.158 342.007 572.075 342.424 572.075 343.028 572.075 343.58 572.158 343.971 572.325 344.2 572.502 344.419 572.721 344.528 572.981 344.528 573.252 344.528 573.471 344.414 573.638 344.184 573.815 343.955 573.903 343.544 573.903 342.95 573.903 342.388 573.815 341.997 573.638 341.778 573.46 341.549 573.242 341.434 572.981 341.434ZM572.981 349.763 577.684 340.716 578.544 340.716 573.856 349.763 572.981 349.763ZM576.7 347.434C576.7 346.82 576.851 346.299 577.153 345.872 577.466 345.445 577.919 345.231 578.513 345.231 579.054 345.231 579.502 345.424 579.856 345.809 580.21 346.184 580.388 346.747 580.388 347.497 580.388 348.226 580.205 348.789 579.841 349.184 579.486 349.57 579.044 349.763 578.513 349.763 578.002 349.763 577.57 349.57 577.216 349.184 576.872 348.799 576.7 348.216 576.7 347.434ZM578.544 345.95C578.273 345.95 578.049 346.065 577.872 346.294 577.705 346.523 577.622 346.94 577.622 347.544 577.622 348.085 577.71 348.471 577.888 348.7 578.065 348.929 578.283 349.044 578.544 349.044 578.804 349.044 579.023 348.929 579.2 348.7 579.377 348.471 579.466 348.054 579.466 347.45 579.466 346.898 579.377 346.513 579.2 346.294 579.023 346.065 578.804 345.95 578.544 345.95Z" fill="#9E9E9E"/><path d="M581.45 336.95 472.95 336.95 334.598 340.283" stroke="#757575" stroke-linecap="butt"/><path d="M336.598 340.283C336.598 339.178 335.703 338.283 334.598 338.283 333.493 338.283 332.598 339.178 332.598 340.283 332.598 341.387 333.493 342.283 334.598 342.283 335.703 342.283 336.598 341.387 336.598 340.283" fill="#9E9E9E"/></svg>