<svg width="764" height="123" xmlns="http://www.w3.org/2000/svg" xmlns:xlink="http://www.w3.org/1999/xlink" overflow="hidden"><defs><clipPath id="clip0"><rect x="235" y="314" width="764" height="123"/></clipPath></defs><g clip-path="url(#clip0)" transform="translate(-235 -314)"><path d="M245 435.5C249.142 435.5 252.5 432.142 252.5 428L245 428C247.071 428 248.75 426.321 248.75 424.25 248.75 422.179 247.071 420.5 245 420.5L252.5 420.5 252.5 323C252.5 318.858 255.858 315.5 260 315.5L369 315.5C373.142 315.5 376.5 318.858 376.5 323 376.5 327.142 373.142 330.5 369 330.5L361.5 330.5 361.5 428C361.5 432.142 358.142 435.5 354 435.5ZM267.5 323C267.5 327.142 264.142 330.5 260 330.5 257.929 330.5 256.25 328.821 256.25 326.75 256.25 324.679 257.929 323 260 323Z" fill="#FBBC04" fill-rule="evenodd"/><path d="M267.5 323C267.5 327.142 264.142 330.5 260 330.5 257.929 330.5 256.25 328.821 256.25 326.75 256.25 324.679 257.929 323 260 323ZM252.5 428C252.5 432.142 249.142 435.5 245 435.5 240.858 435.5 237.5 432.142 237.5 428 237.5 423.858 240.858 420.5 245 420.5 247.071 420.5 248.75 422.179 248.75 424.25 248.75 426.321 247.071 428 245 428Z" fill="#CA9703" fill-rule="evenodd"/><path d="M252.5 420.5 252.5 323C252.5 318.858 255.858 315.5 260 315.5L369 315.5C373.142 315.5 376.5 318.858 376.5 323 376.5 327.142 373.142 330.5 369 330.5L361.5 330.5 361.5 428C361.5 432.142 358.142 435.5 354 435.5L245 435.5C240.858 435.5 237.5 432.142 237.5 428 237.5 423.858 240.858 420.5 245 420.5ZM260 315.5C264.142 315.5 267.5 318.858 267.5 323 267.5 327.142 264.142 330.5 260 330.5 257.929 330.5 256.25 328.821 256.25 326.75 256.25 324.679 257.929 323 260 323L267.5 323M361.5 330.5 260 330.5M245 420.5C247.071 420.5 248.75 422.179 248.75 424.25 248.75 426.321 247.071 428 245 428L252.5 428M245 435.5C249.142 435.5 252.5 432.142 252.5 428L252.5 420.5" stroke="#BC8C00" stroke-width="1.33333" stroke-miterlimit="8" fill="none" fill-rule="evenodd"/><text fill="#FFFFFF" font-family="Calibri,Calibri_MSFontService,sans-serif" font-weight="400" font-size="24" transform="translate(265.904 387)">Abstract</text><path d="M517.5 376.5C517.5 349.99 554.437 328.5 600 328.5 645.564 328.5 682.5 349.99 682.5 376.5 682.5 403.01 645.564 424.5 600 424.5 554.437 424.5 517.5 403.01 517.5 376.5Z" stroke="#BC8C00" stroke-width="1.33333" stroke-miterlimit="8" fill="#FBBC04" fill-rule="evenodd"/><text fill="#FFFFFF" font-family="Calibri,Calibri_MSFontService,sans-serif" font-weight="400" font-size="24" transform="translate(573.05 370)">Noun <tspan font-size="24" x="-10.92" y="29">phrases</tspan></text><path d="M832.5 335.5C832.5 324.454 869.437 315.5 915 315.5 960.564 315.5 997.5 324.454 997.5 335.5L997.5 415.5C997.5 426.546 960.564 435.5 915 435.5 869.437 435.5 832.5 426.546 832.5 415.5Z" fill="#FBBC04" fill-rule="evenodd"/><path d="M997.5 335.5C997.5 346.546 960.564 355.5 915 355.5 869.437 355.5 832.5 346.546 832.5 335.5" stroke="#BC8C00" stroke-width="1.33333" stroke-miterlimit="8" fill="none" fill-rule="evenodd"/><path d="M832.5 335.5C832.5 324.454 869.437 315.5 915 315.5 960.564 315.5 997.5 324.454 997.5 335.5L997.5 415.5C997.5 426.546 960.564 435.5 915 435.5 869.437 435.5 832.5 426.546 832.5 415.5Z" stroke="#BC8C00" stroke-width="1.33333" stroke-miterlimit="8" fill="none" fill-rule="evenodd"/><text fill="#FFFFFF" font-family="Calibri,Calibri_MSFontService,sans-serif" font-weight="400" font-size="24" transform="translate(857.196 378)">Categorized <tspan font-size="24" x="-9.4267" y="29">Noun Phrases</tspan></text><path d="M375 362.75 481.5 362.75 481.5 350 507 375.5 481.5 401 481.5 388.25 375 388.25Z" fill="#4285F4" fill-rule="evenodd"/><text fill="#FFFFFF" font-family="Calibri,Calibri_MSFontService,sans-serif" font-weight="400" font-size="19" transform="translate(396.013 381)">Extraction</text><path d="M691 363.75 797.5 363.75 797.5 351 823 376.5 797.5 402 797.5 389.25 691 389.25Z" fill="#4285F4" fill-rule="evenodd"/><text fill="#FFFFFF" font-family="Calibri,Calibri_MSFontService,sans-serif" font-weight="400" font-size="19" transform="translate(708.284 382)">Annotation</text></g></svg>